<svg width="257" height="341" viewBox="0 0 257 341" fill="none" xmlns="http://www.w3.org/2000/svg">
<path d="M32.0941 234.761C40.0939 212.034 48.5999 183.47 59.0943 155.509C63.7168 143.193 71.8062 132.603 77.8906 121.022C88.2761 101.25 98.0483 81.1803 108.319 61.3428C114.445 49.512 121.573 38.2573 132.367 29.6682C135.437 27.2244 138.644 24.7813 142.154 23.0263C156.966 15.6437 172.062 8.82187 187.848 3.60271C198.908 -0.0478221 210.178 0.435568 221.373 2.6135C231.19 4.52567 237.77 10.447 242.194 18.8972C250.804 35.3213 253.147 53.2212 255.604 71.1556C257.872 87.6797 250.894 101.525 242.195 114.91C231.687 131.07 219.007 145.39 203.753 157.729C182.795 174.684 167.085 196.34 148.769 215.67C127.282 238.343 107.433 262.411 85.5975 284.747C71.8058 298.852 56.4067 311.591 38.8414 321.504C29.6344 326.695 20.341 331.8 12.4361 338.799C9.59126 341.321 6.89363 341.242 3.81216 339.804C0.613159 338.31 -0.212205 335.515 0.266412 332.549C0.848974 328.927 1.84278 325.33 3.00509 321.823C12.0465 294.604 21.1735 267.41 32.0941 234.761Z" fill="#E56A42"/>
</svg>
