<svg width="96" height="124" viewBox="0 0 96 124" fill="none" xmlns="http://www.w3.org/2000/svg">
<g clip-path="url(#clip0)">
<path d="M0.0173033 89.4747C0.767616 76.0167 0.968082 61.2285 1.18 46.4402C1.35756 33.9571 2.11933 21.5026 3.92924 9.12841C4.55928 4.80489 9.57091 0.125865 13.9296 0.00544857C18.5976 -0.126436 22.7615 1.51925 26.6563 3.73262C38.3921 10.4071 51.1073 14.8396 63.4216 20.1952C71.4803 23.6988 79.3787 27.5291 86.0055 33.4697C91.8934 38.7393 96.0918 44.9494 96.0001 53.2294C95.9543 57.507 94.5625 61.4177 92.2657 65.0646C88.434 71.1427 82.9011 75.5809 77.8093 80.4435C70.5009 87.4276 63.2326 94.4576 55.8269 101.344C48.0774 108.552 40.2364 115.714 30.952 120.921C20.923 126.546 13.6375 124.43 6.87322 114.848C1.82149 107.698 -0.2118 99.5208 0.0173033 89.4747Z" fill="#97A1AB"/>
</g>
<defs>
<clipPath id="clip0">
<rect width="96" height="124" fill="white"/>
</clipPath>
</defs>
</svg>
