<svg width="199" height="97" viewBox="0 0 199 97" fill="none" xmlns="http://www.w3.org/2000/svg">
<path d="M6.49992 69C4.10772 55.5 -5.32236 36.0222 4.10764 22.4726C9.30764 14.9963 15.3476 9.64376 24.4576 6.60712C47.5776 -1.1094 71.4276 0.533841 95.1876 0.0533606C126.048 -0.571264 156.138 4.36808 186.098 10.6624C197.008 12.9495 197.078 12.863 198.408 23.3663C198.728 25.8936 198.718 28.4786 198.608 31.0348C198.398 36.2336 195.878 39.6354 190.868 42.2396C169.508 53.3291 148.038 64.2168 126.108 74.182C106.118 83.263 85.5276 91.0949 63.8376 95.8324C49.0376 99.0612 19.89 93.8 13 81L6.49992 69Z" fill="#CF784F"/>
</svg>
