<svg width="181" height="179" viewBox="0 0 181 179" fill="none" xmlns="http://www.w3.org/2000/svg">
<g clip-path="url(#clip0)">
<path d="M118.23 0.149714C127.97 0.279714 135.66 -0.660286 142.81 1.79971C154.93 5.96971 160.65 15.7997 162.79 27.6697C165.13 40.6497 167.79 53.4597 174.45 65.0197C182.53 79.0497 181.66 93.5197 175.85 107.72C166.86 129.73 152.75 148.19 133.33 161.95C120.58 170.98 105.92 175.76 90.16 177.28C73.48 178.89 56.96 178.35 40.56 175.11C30.76 173.17 21.29 170.22 13.11 163.96C2.52998 155.87 -1.09002 144.85 0.259979 132.31C3.51998 101.98 16.81 75.6097 33.37 50.5397C40.05 40.4197 46.9 30.4897 55.17 21.6297C63.25 12.9697 72.62 5.94971 84.33 3.39971C96.19 0.819715 108.29 -0.450286 118.23 0.149714Z" fill="#E0A878"/>
</g>
<defs>
<clipPath id="clip0">
<rect width="180.36" height="178.15" fill="white"/>
</clipPath>
</defs>
</svg>
