<svg width="156" height="176" viewBox="0 0 156 176" fill="none" xmlns="http://www.w3.org/2000/svg">
<path d="M48.8582 59.6743C48.0782 56.0804 47.4882 52.4384 46.4982 48.9021C43.4182 37.9376 44.9282 27.2998 48.9882 16.9215C52.6182 7.65795 59.7282 1.97872 69.8982 0.412365C80.2182 -1.18282 88.6782 1.81535 95.4082 10.0123C102.258 18.363 105.428 27.8091 105.068 38.0529C104.258 61.7116 103.118 85.3894 94.0282 107.876C93.0782 110.24 92.6882 112.815 92.1282 115.314C91.9582 116.063 92.0982 116.87 92.0982 118.062C96.2182 116.726 98.0382 113.766 99.7282 110.72C105.878 99.698 109.718 87.7342 114.948 76.3277C119.198 67.0641 123.718 58.0407 132.848 52.0155C135.578 50.2186 138.268 49.7189 141.308 50.1897C148.678 51.3525 156.958 61.183 155.738 68.2556C154.498 75.4628 156.378 82.6123 155.128 89.781C151.628 109.836 141.188 126.24 126.238 140.077C120.728 145.18 113.198 147.688 106.618 151.407C99.0582 155.683 94.8582 161.795 95.0382 170.145C95.1382 174.748 93.1782 176.19 88.8882 175.911C88.2282 175.873 87.5582 175.902 86.8882 175.902C78.5182 175.892 77.9482 176.065 75.4382 168.598C69.0682 149.687 53.5282 139.741 37.5682 129.036C18.7482 116.419 2.46821 100.899 0.138213 76.7313C-0.671787 68.2749 2.02821 61.2023 9.56821 57.0413C17.3882 52.717 25.9682 51.9098 34.2582 56.6858C35.8182 57.5891 37.3082 58.6077 38.8382 59.5782C43.5582 64.1428 48.4582 68.5728 51.6782 74.4058C49.1482 69.7932 49.3682 64.6713 48.8582 59.6743Z" fill="#CF774F"/>
</svg>
