<svg width="69" height="82" viewBox="0 0 69 82" fill="none" xmlns="http://www.w3.org/2000/svg">
<path d="M0.388368 33.3365C-1.68163 24.9378 4.93837 19.47 10.4184 13.9061C13.8784 10.3986 18.3784 7.72717 22.4584 4.74823C29.6484 -0.498556 36.4984 -1.69013 44.4084 2.96086C51.0384 6.86232 58.9884 9.84126 61.2784 17.5865C64.6084 28.8392 68.9484 40.0343 68.3084 52.0558C67.9384 59.0515 62.7284 63.5295 58.2084 68.0844C54.3484 71.9763 49.6884 75.1762 45.2184 78.4723C39.6784 82.5659 33.0284 83.0656 27.6384 78.8086C19.5384 72.4087 11.5184 65.9511 6.95837 56.2167C3.59837 49.048 -0.201632 42.2541 0.388368 33.3365Z" fill="#E1B1C8"/>
</svg>
