<?xml version="1.0" encoding="utf-8"?>
<!-- Generator: Adobe Illustrator 23.0.5, SVG Export Plug-In . SVG Version: 6.00 Build 0)  -->
<svg version="1.1" id="Слой_1" xmlns="http://www.w3.org/2000/svg" xmlns:xlink="http://www.w3.org/1999/xlink" x="0px" y="0px"
	 viewBox="0 0 600 600" style="enable-background:new 0 0 600 600;" xml:space="preserve">
<style type="text/css">
	.st0{fill:#B5B1D2;}
</style>
<path class="st0" d="M401.85,222.53c-10.24,15.92-18.05,33.23-28.4,49.09c-3.35,5.13-5.85,10.78-9.02,16.06
	c-7.33,12.24-13.66,25.09-20.95,37.35c-11.27,18.97-21.81,38.35-32.82,57.47c-7.62,13.22-15.37,26.37-22.72,39.74
	c-2.08,3.78-4.93,7.08-6.62,11.11c-0.9,2.15-2.24,2.17-3.64,0.2c-14.61-20.56-26.79-42.04-32.35-67.21
	c-3.57-16.18-5.22-32.37-5.97-48.73c-0.56-12.28-0.32-24.64,6.28-35.73c9.57-16.08,16.95-33.47,29.03-48.06
	c7.33-8.86,16.28-15.27,26.67-20.22c8.42-4.02,17.04-4.51,26.03-4.71c7.95-0.18,15.88-1.55,23.57-3.59
	c9.13-2.43,18.16-0.95,27.21-0.17c6.6,0.57,13.1,1.56,19.49,3.73c7.47,2.55,8.7,4.51,5.3,11.42
	C402.58,221.03,402.21,221.78,401.85,222.53z"/>
</svg>
