<?xml version="1.0" encoding="utf-8"?>
<!-- Generator: Adobe Illustrator 23.0.5, SVG Export Plug-In . SVG Version: 6.00 Build 0)  -->
<svg version="1.1" id="Слой_1" xmlns="http://www.w3.org/2000/svg" xmlns:xlink="http://www.w3.org/1999/xlink" x="0px" y="0px"
	 viewBox="0 0 600 600" style="enable-background:new 0 0 600 600;" xml:space="preserve">
<style type="text/css">
	.st0{fill:#CDAD4B;}
</style>
<path class="st0" d="M267.71,288.13c-0.96,6.35,0.51,13.2,7.8,17.96c3.99,2.6,7.77,2.59,11.64,0.35
	c11.2-6.49,17.91-16.7,22.61-28.32c6.72-16.62,15.44-32.42,21.06-49.46c12.12-36.76,31.71-70.24,45.97-106.07
	c6.18-15.52,16.3-28.19,33.23-33.68c13.39-4.34,27.15-4.83,41-3.9c6.26,0.42,13.93,9.51,14.17,16.14c0.3,8.32,0.51,16.65,0.71,24.97
	c0.26,10.87,1.33,21.59,6.14,31.55c6.4,13.25,2.3,25.44-3.32,37.68c-6.38,13.91-13.71,27.29-21.42,40.5
	c-9.49,16.27-16.23,33.39-15.54,52.77c0.37,10.47-0.31,20.99,1.24,31.41c1.6,10.78,6.36,20.6,9.58,30.88
	c1.85,5.91,5.59,12.26,1.54,18.58c-3.19,4.96-6.83,9.32-13.93,9.5c-15.95,0.42-32.02,0.66-47.14,6.9c-4.75,1.96-9.4,4.16-14.13,6.18
	c-5.31,2.27-10.93,3.39-16.6,2.56c-11-1.62-20.12,1.94-28.69,8.59c-11.55,8.95-24.01,16.7-35.04,26.36
	c-7.35,6.44-14.6,12.96-20.92,20.47c-4.91,5.84-11.04,6.28-17.06,1.57c-2.81-2.2-4.75-5.13-6.89-7.87
	c-9.43-12.08-21.99-18.05-36.98-17.03c-13.47,0.92-24.72-3.13-36.28-9.56c-18.08-10.06-37.54-11.79-57.34-4.52
	c-2.97,1.09-6.04,1.99-8.82,3.46c-4.62,2.44-8.49,0.94-11.89-2.05c-3.4-2.99-5.01-6.52-3.61-11.53
	c4.21-15.1,11.73-28.66,19.48-42.01c9.29-15.99,16.94-32.78,25.41-49.17c6.26-12.12,13.87-23.43,20.7-35.21
	c5.15-8.88,9.55-18.18,15.68-26.49c13.59-18.44,31.74-29.3,54.21-33.42c12.33-2.26,21.84,5.05,27.83,13.56
	C264.09,246.8,268.02,266.11,267.71,288.13z"/>
</svg>
