<svg width="207" height="234" viewBox="0 0 207 234" fill="none" xmlns="http://www.w3.org/2000/svg">
<g clip-path="url(#clip0)">
<path d="M101.093 165.967C101.053 177.387 101.046 188.393 103.143 199.201C103.843 202.795 104.194 206.447 104.722 210.076C105.415 214.941 104.14 217.927 98.6789 219.334C92.4008 220.95 86.4814 223.879 80.3847 226.218C75.9664 227.905 73.4826 227.506 72.6019 221.721C69.4008 200.606 66.1578 179.455 61.8829 158.541C56.6358 132.856 56.3463 106.906 56.7528 80.959C56.9952 65.565 59.4766 50.2227 60.9566 34.8497C61.297 31.2831 62.9878 29.0369 66.5129 27.6596C72.3881 25.3642 78.0362 22.4869 83.8101 19.9285C86.0601 18.9339 87.979 18.1904 90.0957 20.9925C111.991 49.8569 135.532 77.4428 157.578 106.162C172.051 125.018 186.702 143.824 200.363 163.328C203.678 168.051 203.03 170.697 197.786 172.971C194.263 174.507 191.124 176.891 187.727 178.746C180.228 182.859 178.614 182.588 173.345 175.926C162.243 161.889 150.521 148.361 138.247 135.129C139.644 141.943 142.251 148.35 145.257 154.569C151.023 166.502 156.997 178.303 161.46 190.83C162.97 195.059 162.043 197.065 157.847 198.588C148.661 201.927 139.59 205.589 130.539 209.297C125.352 211.426 121.831 210.638 119.348 205.098C114.943 195.243 110.049 185.614 105.431 175.852C103.875 172.592 102.531 169.265 101.093 165.967Z" fill="#37405C"/>
</g>
<defs>
<clipPath id="clip0">
<rect width="141.284" height="193.384" fill="white" transform="translate(0 56.4824) rotate(-23.5644)"/>
</clipPath>
</defs>
</svg>
