<svg width="292" height="374" viewBox="0 0 292 374" fill="none" xmlns="http://www.w3.org/2000/svg">
<g clip-path="url(#clip0)">
<path d="M269.348 349.645C263.638 354.371 256.602 356.054 249.773 358.154C248.213 358.631 246.716 358.904 245.926 356.5C242.898 347.193 237.261 339.238 231.632 331.449C213.082 305.814 194.601 280.118 174.376 255.751C169.166 249.477 163.827 243.331 157.666 237.911C152.778 233.601 149.407 228.024 145.705 222.656C125.178 192.934 105.422 162.569 79.8481 136.726C68.657 125.407 59.3286 112.652 50.5769 99.4654C42.6942 87.5627 32.3446 77.8532 22.9275 67.3145C15.4888 58.9903 8.79991 50.0637 1.54335 41.5988C-0.308615 39.4419 0.566277 38.531 2.95486 37.9964C8.15112 36.8272 13.426 34.7459 18.65 35.5764C25.7602 36.704 31.4815 41.3446 35.3219 47.1529C38.9837 52.7079 42.4527 58.4233 46.5336 63.6704C55.345 75.0158 62.1514 87.6654 70.3653 99.3956C79.3747 112.253 89.9169 123.797 100.389 135.415C110.861 147.033 120.859 159.071 131.528 170.501C139.223 178.755 147.833 186.155 155.729 194.242C161.078 199.708 166.513 205.261 170.82 211.523C182.856 229.001 198.158 243.232 214.217 256.784C224.914 265.807 234.21 276.26 244.451 285.765C251.929 292.703 260.88 297.672 268.431 304.473C271.071 306.845 273.623 309.144 275.031 312.459C275.992 314.706 277.823 316.155 279.583 317.679C286.283 323.465 286.406 335.053 279.704 340.993C276.334 343.97 272.809 346.762 269.348 349.645Z" fill="#E75842"/>
</g>
<defs>
<clipPath id="clip0">
<rect width="408.79" height="68.49" fill="white" transform="translate(55.9658) rotate(54.799)"/>
</clipPath>
</defs>
</svg>
