<?xml version="1.0" encoding="utf-8"?>
<!-- Generator: Adobe Illustrator 23.0.5, SVG Export Plug-In . SVG Version: 6.00 Build 0)  -->
<svg version="1.1" id="Слой_1" xmlns="http://www.w3.org/2000/svg" xmlns:xlink="http://www.w3.org/1999/xlink" x="0px" y="0px"
	 viewBox="0 0 300 335.98" style="enable-background:new 0 0 300 335.98;" xml:space="preserve">
<style type="text/css">
	.st0{fill:#E0AEAA;}
</style>
<path class="st0" d="M65.78,274.88c5.01-8.94,7.4-16.45,10.07-23.91c2.87-8.01,8.25-14.74,12.51-22.03
	c7.98-13.64,19.29-25.09,25.11-40.12c2.71-7.02,8.02-12.29,11.83-18.59c10.45-17.28,19.93-35.25,27.26-53.83
	c11.19-28.36,23.85-55.94,37.67-83.03c3.73-7.31,7.41-15.41,15.83-18.87c8.05-3.31,26.9,1.26,32.29,7.93
	c1.75,2.17,1.97,4.76,1.99,7.53c0.06,10.14-3.39,19.64-6.18,29.34c-6.39,22.29-15.45,44.13-13.48,67.84
	c0.72,8.64-1.17,17.35-7.54,24.61c-1.99,2.27-3.31,5.38-4.35,8.31c-4.09,11.43-11.67,20.74-18.29,30.51
	c-7.15,10.55-11.92,21.8-15.2,33.93c-3.34,12.36-7.22,24.59-11.38,36.73c-3.13,9.12-7.77,17.53-11.93,26.16
	c-3.23,6.69-8.16,10.5-15.03,11.97c-8.04,1.73-14.52,6.7-19.34,13.61c-4.85,6.96-11.84,10.71-18.23,15.23
	c-3.74,2.66-8.52,0.86-12.48-0.6c-10.17-3.72-18.39-10.78-26.57-17.58c-5.66-4.72-2.82-12.58-1.11-18.84
	C60.93,284.93,63.22,278.54,65.78,274.88z"/>
</svg>
