<svg width="69" height="83" viewBox="0 0 69 83" fill="none" xmlns="http://www.w3.org/2000/svg">
<path d="M0.388368 33.955C-1.68163 25.5562 4.93837 20.0884 10.4184 14.5244C13.8784 11.0169 18.3784 8.34543 22.4584 5.36645C29.6484 0.119602 36.4984 -1.07199 44.4084 3.57906C51.0384 7.48056 58.9884 10.4595 61.2784 18.2049C64.6084 29.4577 68.9484 40.653 68.3084 52.6746C67.9384 59.6704 62.7284 64.1485 58.2084 68.7034C54.3484 72.5953 49.6884 75.7953 45.2184 79.0914C39.6784 83.1851 33.0284 83.6848 27.6384 79.4277C19.5384 73.0277 11.5184 66.5701 6.95837 56.8355C3.59837 49.6668 -0.201632 42.8728 0.388368 33.955Z" fill="#E1B1C8"/>
</svg>
