<svg width="293" height="218" viewBox="0 0 293 218" fill="none" xmlns="http://www.w3.org/2000/svg">
<path d="M74.5826 78.7058C84.7241 87.2685 94.8977 95.7816 104.98 104.409C108.724 107.609 112.771 110.374 116.932 113.03C120.826 115.512 124.587 116.116 128.248 112.811C132.43 109.038 132.947 105.56 129.917 100.852C124.459 92.3939 117.765 84.836 110.971 77.3727C100.329 65.6884 89.145 54.4804 77.4946 43.7098C69.8635 36.6526 63.916 28.3947 58.8946 19.4732C57.7672 17.4596 56.9449 15.3454 56.7464 13.1311C56.3898 9.19712 55.3362 4.80255 59.6098 2.18127C64.0201 -0.516588 69.0433 -0.419903 73.3935 2.10178C81.6287 6.8676 88.3447 13.3824 93.4664 21.1605C113.657 51.767 138.236 79.1459 162.07 107.034C168.369 114.412 176.117 120.686 183.443 127.204C190.105 133.123 202.759 130.58 206.684 122.778C208.447 119.278 209.467 115.572 209.56 111.685C209.856 98.8107 208.826 86.1212 203.932 73.9302C202.714 70.8805 201.467 67.6146 204.052 64.4376C209.241 58.0485 212.5 58.0368 218.523 63.7231C228.358 72.9994 234.446 84.1902 237.227 97.0025C241.109 114.901 246.525 132.33 252.71 149.602C256.384 159.867 262.692 167.803 271.948 173.942C279.209 178.768 285.935 184.268 290.556 191.764C293.602 196.702 293.463 197.8 288.561 202.36C285.08 205.6 281.741 204.404 278.766 202.008C271.626 196.248 264.712 190.257 256.98 185.174C249.803 180.458 242.295 179.657 234.171 182.021C231.564 182.775 229.368 184.042 227.418 185.913C219.14 193.801 210.93 201.732 201.564 208.497C186.02 219.716 169.966 220.795 153.104 211.457C143.875 206.352 134.5 201.493 125.285 196.373C116.334 191.399 106.651 188.712 96.4789 187.491C82.1064 185.769 67.8343 183.325 53.3633 182.351C47.6972 181.967 42.2457 180.665 37.1186 178.076C32.344 175.669 31.4618 171.611 31.5795 167.144C31.6981 162.69 32.6326 158.567 37.6388 156.513C45.6034 153.247 53.4639 149.804 62.0794 148.316C76.41 145.833 88.4169 151.787 100.379 157.922C104.929 160.254 109.359 162.805 113.884 165.18C117.005 166.818 120.363 167.746 123.931 167.6C127.719 167.446 131.967 167.823 134.08 163.94C136.426 159.627 135.447 155.18 133.229 151.069C132.418 149.553 131.059 148.2 129.66 147.096C115.529 135.894 102.095 123.899 87.3201 113.445C79.4788 107.899 70.5847 104.189 61.7602 100.46C41.3687 91.8395 24.2343 78.6517 7.24535 65.2029C1.75985 60.8656 -0.442929 55.3984 0.490619 48.6266C1.1462 43.8331 3.81739 41.4067 8.7545 40.4328C21.3984 37.9456 31.5944 42.5761 40.7728 50.1977C52.1194 59.6116 63.3143 69.1916 74.5826 78.7058Z" fill="#1B414B"/>
</svg>
