<?xml version="1.0" encoding="utf-8"?>
<!-- Generator: Adobe Illustrator 23.0.5, SVG Export Plug-In . SVG Version: 6.00 Build 0)  -->
<svg version="1.1" id="Слой_1" xmlns="http://www.w3.org/2000/svg" xmlns:xlink="http://www.w3.org/1999/xlink" x="0px" y="0px"
	 viewBox="0 0 600 600" style="enable-background:new 0 0 600 600;" xml:space="preserve">
<style type="text/css">
	.st0{fill:#A06545;}
</style>
<path class="st0" d="M207.27,347.87c-0.39-8.04,0.92-16,4.46-23.36c8.13-16.89,16.19-33.87,28.39-48.36
	c6.69-7.94,15.92-12.38,25.07-16.58c11.05-5.08,22.46-9.36,33.7-14.01c8.45-3.5,16.19-2.66,22.82,3.96
	c5.06,5.04,10.44,9.09,17.92,10.15c2.59,0.37,5.36,2.78,7.13,5c5.23,6.56,11.25,12.54,15.34,19.97c2.09,3.79,4.01,7.68,6.28,11.36
	c8.87,14.4,8.15,29.54,4.78,45.41c-4.67,21.96-17.05,38.45-34,52.2c-13.48,10.93-27.2,21.45-43.94,27.05
	c-13.15,4.4-26.55,2.93-38.86-1.71c-9.02-3.4-16.46-10.72-23.89-17.31c-10.76-9.55-18.22-21.12-22.83-34.68
	C207.54,360.77,206.94,354.47,207.27,347.87z"/>
</svg>
