<svg width="136" height="145" viewBox="0 0 136 145" fill="none" xmlns="http://www.w3.org/2000/svg">
<g clip-path="url(#clip0)">
<path d="M0.0701843 84.1599C-0.239816 77.6699 0.810184 71.2599 3.67018 65.3199C10.2202 51.6899 16.7202 37.9999 26.5602 26.3099C31.9502 19.8999 39.4002 16.3199 46.7802 12.9299C55.6902 8.83988 64.8902 5.37988 73.9602 1.62988C80.7802 -1.19012 87.0102 -0.520116 92.3702 4.81988C96.4502 8.88988 100.79 12.1499 106.82 13.0099C108.91 13.3099 111.15 15.2599 112.57 17.0399C116.78 22.3299 121.64 27.1499 124.94 33.1399C126.62 36.1999 128.18 39.3299 130 42.2999C137.15 53.9199 136.58 66.1199 133.85 78.9199C130.08 96.6299 120.1 109.93 106.43 121.02C95.5602 129.84 84.4902 138.32 70.9902 142.84C60.3902 146.39 49.5802 145.21 39.6502 141.46C32.3802 138.72 26.3702 132.81 20.3802 127.5C11.7002 119.8 5.68018 110.47 1.97018 99.5299C0.290184 94.5599 -0.199816 89.4799 0.0701843 84.1599Z" fill="#B26541"/>
</g>
<defs>
<clipPath id="clip0">
<rect width="135.74" height="144.98" fill="white"/>
</clipPath>
</defs>
</svg>
