<svg width="346" height="288" viewBox="0 0 346 288" fill="none" xmlns="http://www.w3.org/2000/svg">
<g clip-path="url(#clip0)">
<path d="M158.198 236.788C133.995 250.912 107.008 268.103 76.1687 278.289C72.295 279.571 70.2346 279.217 67.3944 274.993C52.6964 253.03 40.8488 229.835 37.4708 204.539C35.2347 187.769 42.4131 174.941 50.8918 163.813C53.7095 160.108 58.5926 159.358 63.9097 161.652C67.074 163.008 70.3149 163.944 73.4754 165.237C85.7035 170.22 88.7324 168.791 91.7298 156.396C94.7084 144.056 96.5645 131.143 101.915 120.069C110.717 101.839 124.878 93.5749 145.841 97.2671C157.908 99.3929 169.931 100.728 181.997 102.766C189.361 104.01 193.186 101.324 193.978 93.3181C195.781 75.0767 199.563 57.8339 207.201 42.4753C211.502 33.8291 218.003 30.8344 227.623 33.4151C229.224 33.8505 230.905 33.928 232.445 34.6657C258.665 47.3507 285.544 58.1778 308.952 79.3287C316.439 86.1011 323.605 93.3559 330.943 100.374C336.263 105.467 337.062 110.694 334.74 116.478C332.661 121.651 329.485 125.662 324.921 127.829C313.623 133.154 302.388 138.728 289.092 139.338C274.618 140.005 263.087 145.957 255.447 158.317C244.633 175.812 228.811 187.316 213.976 200.006C197.918 213.772 179.433 223.791 158.198 236.788Z" fill="#118567"/>
</g>
<defs>
<clipPath id="clip0">
<rect width="316.902" height="143.775" fill="white" transform="translate(0 165.03) rotate(-31.3834)"/>
</clipPath>
</defs>
</svg>
