<?xml version="1.0" encoding="utf-8"?>
<!-- Generator: Adobe Illustrator 23.0.5, SVG Export Plug-In . SVG Version: 6.00 Build 0)  -->
<svg version="1.1" id="Слой_1" xmlns="http://www.w3.org/2000/svg" xmlns:xlink="http://www.w3.org/1999/xlink" x="0px" y="0px"
	 viewBox="0 0 283.93 305.25" style="enable-background:new 0 0 283.93 305.25;" xml:space="preserve">
<style type="text/css">
	.st0{fill:#111213;}
</style>
<path class="st0" d="M142.34,146.98c-19.66,39.33-39.31,78.67-58.97,118c-0.7,1.41-1.52,2.76-2.1,4.22
	c-1.22,3.14-2.8,3.89-5.84,2.59c-3.59-1.52-1.77-3.62-0.73-5.7c5.39-10.86,10.83-21.67,16.25-32.51
	c34.98-70.05,69.94-140.12,104.99-210.14c1.01-2.01,1.18-5.27,4.09-5.44c1.49-0.08,3.38,0.82,4.35,1.98
	c1.54,1.84-0.58,3.65-1.39,5.28c-20.2,40.57-40.47,81.1-60.73,121.64C142.26,146.95,142.3,146.97,142.34,146.98z"/>
</svg>
