<svg width="71" height="86" viewBox="0 0 71 86" fill="none" xmlns="http://www.w3.org/2000/svg">
<path d="M0.210283 32.5638C-1.64972 20.0906 9.15029 10.9615 19.9203 6.19517C22.6203 4.99398 25.4103 4.08107 27.9903 2.55315C32.1703 0.0834948 37.2603 0.381395 40.9803 2.3994C48.4903 6.49307 57.5403 8.15552 63.3203 15.1609C65.2303 17.4672 66.8403 19.5813 67.2903 22.6563C67.8903 26.7404 69.2803 30.7091 70.0703 34.774C71.2003 40.6262 68.6003 45.8922 66.2203 50.8892C60.5003 62.8723 53.7103 74.25 40.8903 80.7076C35.7503 83.2926 30.4103 85.2818 24.4403 85.8487C17.2003 86.5406 13.0103 82.937 10.4003 77.4019C5.25029 66.4663 1.76028 55.0501 1.08028 42.9517C0.890284 39.3001 -0.519717 35.7349 0.210283 32.5638Z" fill="#E1B1C8"/>
</svg>
