<svg width="110" height="114" viewBox="0 0 110 114" fill="none" xmlns="http://www.w3.org/2000/svg">
<g clip-path="url(#clip0)">
<path d="M20.4162 69.0895C11.0014 59.9768 13.7191 45.8522 19.1879 35.3267C20.5564 32.6848 22.1798 30.2249 23.2452 27.3878C24.9751 22.7959 29.1883 19.9232 33.4151 19.3045C41.9607 18.0716 50.1739 13.8956 59.2081 16.1175C62.1879 16.8446 64.8081 17.5974 67.1239 19.8512C70.2014 22.843 73.8299 25.2561 77.0454 28.1158C81.6689 32.2374 82.9705 38.1617 84.2744 43.7298C87.3914 57.0903 89.2828 70.6162 83.2595 83.7728C80.8443 89.0475 77.8913 93.9547 73.5338 98.0779C68.252 103.082 62.643 102.684 57.0518 99.7299C46.0244 93.891 35.9888 86.6383 27.7395 77.1031C25.2537 74.2219 21.8667 72.1531 20.4162 69.0895Z" fill="#E1B1C8"/>
</g>
<defs>
<clipPath id="clip0">
<rect width="70.34" height="88.6" fill="white" transform="translate(0 43.0859) rotate(-37.7731)"/>
</clipPath>
</defs>
</svg>
