<svg width="176" height="202" viewBox="0 0 176 202" fill="none" xmlns="http://www.w3.org/2000/svg">
<path d="M26.1535 153.158C22.0043 130.924 16.3646 106.738 10.7542 82.5458C6.01598 62.1251 2.28165 41.5242 0.360021 20.647C-0.305649 13.3513 6.30788 3.77858 13.6625 1.88932C21.5379 -0.138768 29.2748 0.926958 36.7837 3.02275C59.4117 9.34618 82.7982 11.6339 105.876 15.5825C120.979 18.1644 135.94 21.3415 149.594 28.4527C161.723 34.7571 171.361 43.2509 174.548 56.7858C176.197 63.7776 175.412 70.6938 172.983 77.5316C168.929 88.9293 161.323 98.3141 154.638 108.219C145.044 122.444 135.537 136.729 125.739 150.833C115.496 165.592 105.059 180.316 91.3918 192.41C76.6285 205.477 63.4021 204.866 48.0325 191.865C36.575 182.167 29.8202 169.626 26.1535 153.158Z" fill="#94A2AD"/>
</svg>
