<svg width="258" height="262" viewBox="0 0 258 262" fill="none" xmlns="http://www.w3.org/2000/svg">
<g clip-path="url(#clip0)">
<path d="M241.921 136.813C244.534 140 247.085 143.25 249.781 146.356C255.536 152.985 252.762 159.482 246.939 163.948C244.645 165.706 241.899 167.318 239.061 167.885C223.993 170.886 212.482 180.399 199.619 187.426C191.609 191.803 183.771 196.444 176.025 201.295C164.458 208.551 150.886 211.593 137.609 214.813C129.257 216.836 120.394 217.174 111.762 218.27C108.689 218.661 105.7 218.096 102.853 216.602C94.1929 212.06 84.5778 209.323 77.7531 201.306C70.2027 192.432 63.6459 182.805 58.9507 172.341C52.6343 158.283 46.1156 144.243 41.5391 129.534C40.3958 125.868 39.9808 122.282 40.2296 118.558C41.9421 93.695 53.2571 73.8816 68.6498 56.2263C72.7126 51.5656 77.2413 47.3477 80.9237 42.3344C87.7141 33.0988 97.0496 26.9948 106.902 21.5627C110.884 19.3681 114.435 16.3826 119.002 15.235C122.152 14.4365 128.588 17.9101 131.442 22.0316C133.873 25.5399 134.354 28.5923 132.028 32.5425C125.181 44.1626 114.998 52.4512 105.398 61.2705C89.539 75.8493 78.686 93.7455 74.5425 115.309C71.3907 131.728 75.2458 148.038 87.9862 161.026C94.4572 167.621 101.977 173.615 109.897 178.174C117.692 182.65 126.665 185.189 135.566 184.339C150.707 182.891 164.037 177.241 175.718 167.921C179.839 164.641 184.527 162.052 188.954 159.16C198.047 153.206 203.713 144.105 209.822 135.403C213.705 129.869 218.69 125.621 224.725 122.544C226.734 121.524 228.17 121.7 230.033 123.262C234.697 127.18 238.128 132.145 241.921 136.813Z" fill="#5C5DA0"/>
</g>
<defs>
<clipPath id="clip0">
<rect width="201" height="168" fill="white" transform="translate(129.912) rotate(50.6496)"/>
</clipPath>
</defs>
</svg>
