<?xml version="1.0" encoding="utf-8"?>
<!-- Generator: Adobe Illustrator 23.0.5, SVG Export Plug-In . SVG Version: 6.00 Build 0)  -->
<svg version="1.1" id="Слой_1" xmlns="http://www.w3.org/2000/svg" xmlns:xlink="http://www.w3.org/1999/xlink" x="0px" y="0px"
	 viewBox="0 0 286 166" style="enable-background:new 0 0 286 166;" xml:space="preserve">
<style type="text/css">
	.st0{clip-path:url(#SVGID_2_);}
	.st1{fill:#74273A;}
	.st2{fill:#FDC1CC;}
	.st3{fill:#FCC1CC;}
	.st4{fill:#FAC2CE;}
	.st5{fill:#FBC0CE;}
	.st6{fill:#F9C0CE;}
	.st7{fill:#F7C5CC;}
</style>
<g>
	<defs>
		<rect id="SVGID_1_" y="2.7" width="285.7" height="165.2"/>
	</defs>
	<clipPath id="SVGID_2_">
		<use xlink:href="#SVGID_1_"  style="overflow:visible;"/>
	</clipPath>
	<g class="st0">
		<path class="st1" d="M107.2,150.5c-11.1-9.3-24.3-14.9-37.2-21.1c-10-4.9-19.9-9.9-26.1-19.8c-5-8-2.9-14.5,5.9-17.7
			c9-3.2,18.1-3.1,27.1,0c10.1,3.5,19.4,8.8,28.7,14c2.4,1.3,3.8,1.6,4.6-1.6c3-11.5,8.7-21.6,16.4-30.6c2-2.3,1.1-3-0.9-4.1
			c-8.6-4.6-17.1-9.4-26.1-13.3c-23.1-10-46.4-11.5-69.6-0.8C7.2,66.1-4.2,89,1.4,113.4c4.5,19.6,17.2,33.4,33.7,44
			c6.3,4.1,13,7.4,19.7,10.6h68.6C119.1,161.6,113.5,155.8,107.2,150.5z"/>
		<path class="st2" d="M242.8,9.5c-3.2,18.2-10,34.8-22.4,48.7c-3.7,4.1-3.7,4,0.5,7.4c8.1,6.4,14.1,14.7,19.2,23.5
			c2.9,4.9,3.2,5.3,7.2,1.2c8.1-8.4,15.1-17.6,20.7-27.8c7.9-14.3,13.3-29.6,15.9-45.5c0.8-4.7,1.4-9.5,1.9-14.2h-41.8
			C243.6,5,243.2,7.3,242.8,9.5z"/>
		<path class="st1" d="M220.5,111.2c-14.4-7.7-28.8-15.3-43.2-23c-2.7-1.5-5-1.4-7.7,0.4c-5.7,3.8-11.6,7.3-17.4,11
			c-3.2,2.1-6.1,1.7-8.6-1c-2.4-2.6-2.5-5.4-0.7-8.4c1.6-2.6,3.1-5.3,4.9-7.8c1.9-2.7,1.9-4.1-1.9-4c-2.8,0.1-5.6-0.4-8.2-1.4
			c-3.1-1.2-5.4-0.2-7.3,2.3c-3.5,4.5-6.6,9.2-9,14.4c-5.4,12.3-5.5,12.4,3.6,22.1c0.2,0.2,0.5,0.4,0.6,0.7c1.2,2.2,2.7,2.1,4.6,0.7
			c3.2-2.4,6.6-2.3,9.6,0.3c1.8,1.6,2.7,1.1,4.3-0.4c4.9-4.5,11.4-2.9,13.6,3.3c0.6,1.6,1.1,2.8,3.1,3.1c4.5,0.7,6.8,3.6,7,8.2
			c0.1,1.5,0.7,2.2,2.1,3c4.9,2.6,6,4.9,4.2,10.3c-0.8,2.5-0.1,3.1,2.1,3.2c2.9,0.1,5.8,0.4,8.8,0.6c0,0,0,0.1,0,0.1
			c1.3,0,2.6-0.1,3.9,0c1.9,0.2,3.7-0.1,4.1-2.3c0.3-1.9-0.8-2.8-2.6-3.4c-2.6-0.9-5.1-2.1-7.7-3.2c-1.3-0.6-3.2-1-2.5-2.9
			c0.7-1.9,2.4-1.2,3.8-0.6c4.6,1.8,9.2,3.6,13.8,5.4c3,1.2,5.6,0.8,6.9-2.4c1.3-3.3-0.7-5.2-3.6-6.4c-4.5-2-9.1-3.9-13.6-5.9
			c-1.4-0.6-3.5-1.1-2.5-3.3c1-2.1,2.7-0.9,4.1-0.3c6.3,2.7,12.5,5.5,18.8,8.2c2.6,1.1,4.8,0.1,5.9-2.2c1.1-2.3,0.6-4.6-1.9-6
			c-1.7-0.9-3.4-1.8-5-2.6c-5.1-2.5-10.2-5-15.3-7.5c-1.2-0.6-2.5-1.3-1.9-2.9c0.6-1.6,2.1-1.3,3.3-0.7c1.1,0.5,2.1,1,3.2,1.5
			c6.5,3.2,13.1,6.4,19.6,9.7c3.4,1.7,6.2,1.7,8.3-1.8C225.6,116.2,224.3,113.3,220.5,111.2z"/>
		<path class="st3" d="M216,69.7c-1.5-1.4-3.2-2.1-5.5-0.7c-2.6,1.5-5.8,2.2-8.9,1.4c-5.7-1.3-11.7,0.1-16.7-1.7
			c-8.6,0.5-16,3.2-23.5,5.3c-2.4,0.7-5.1,2-6.3,4.2c-2.5,4.7-6.6,8.4-8.3,13.6c-0.4,1.3-2,2.4-0.7,3.8c1.4,1.5,3.2,1.4,4.8,0.4
			c5.6-3.4,11.4-6.7,16.8-10.5c3.4-2.5,6.8-3,10.1-1.3c7.9,4,15.6,8.4,23.4,12.6c6.9,3.7,13.8,7.3,20.7,10.9
			c1.8,0.9,4.2,1.4,5.2-0.3c1.9-3,4.7-5.1,6.7-7.9c1.4-1.9,1.4-3.7,0.5-5.7C229.9,84.5,223.7,76.5,216,69.7z"/>
		<path class="st4" d="M150.9,118.6c-2.4-1-4,0.6-5,2.3c-3.2,5.3-6,10.9-9.2,16.2c-1.4,2.4-2.5,4.3,0.5,6.2c3.1,1.8,5.6,1.1,7.3-2
			c2.6-4.6,5.2-9.3,7.7-14c0.7-1.3,2.5-2.2,2.1-3.4C154.2,120.9,152.8,119.4,150.9,118.6z"/>
		<path class="st5" d="M158.8,127.6c-1.4-0.2-2.9,0.3-3.9,2.1c-2.2,4.2-4.6,8.3-7,12.5c-1.2,2.2-1.3,4.3,1,5.7
			c2.1,1.4,4.6,1.4,6.3-0.8c3.4-4.3,6.3-9,8.1-14.2C164.6,129.3,163.2,127.5,158.8,127.6z"/>
		<path class="st6" d="M137.6,120.8c-1.9-1.6-4.6-1.8-6,0c-2.5,3.2-4.8,6.8-5.6,10c0.2,2.7-0.4,4.9,2.2,5.5c2.4,0.5,4.6,0.4,5.9-2.2
			c1.3-2.5,2.6-5.1,4.1-7.5C139.9,124.2,139.4,122.3,137.6,120.8z"/>
		<path class="st7" d="M169.2,138.5c-1.6-0.9-3.9-0.9-5.1,0.9c-1.5,2.2-2.8,4.7-3.6,7.9c0.5,1.4,0.3,3.6,2.7,4.5
			c2.4,0.9,3.4-0.9,4.3-2.5c1-1.9,2-3.8,2.9-5.8C171.4,141.5,171,139.5,169.2,138.5z"/>
	</g>
</g>
</svg>
