<?xml version="1.0" encoding="utf-8"?>
<!-- Generator: Adobe Illustrator 23.0.5, SVG Export Plug-In . SVG Version: 6.00 Build 0)  -->
<svg version="1.1" id="Слой_1" xmlns="http://www.w3.org/2000/svg" xmlns:xlink="http://www.w3.org/1999/xlink" x="0px" y="0px"
	 viewBox="0 0 960 739.6" style="enable-background:new 0 0 960 739.6;" xml:space="preserve">
<style type="text/css">
	.st0{clip-path:url(#SVGID_2_);}
	.st1{fill:#ED4334;}
	.st2{fill:#F9C1CC;}
</style>
<g>
	<g>
		<defs>
			
				<rect id="SVGID_1_" x="49.4" y="62.5" transform="matrix(0.9132 -0.4076 0.4076 0.9132 -99.5188 211.7245)" width="795.5" height="553.9"/>
		</defs>
		<clipPath id="SVGID_2_">
			<use xlink:href="#SVGID_1_"  style="overflow:visible;"/>
		</clipPath>
		<g class="st0">
			<path class="st1" d="M495,61.8c-31.1,18.3-46.6,49.2-42.1,85c2.6,20.2,10.6,38,26.1,51.3c27.5,23.6,58.6,26,91.2,12.7
				c24.7-10.1,39.5-29.7,47.7-54.7c4.3-13.2,7-26.9,12.3-39.7c7.4-17.8,28.9-27.7,47.2-21.4c23.1,7.9,31.7,38.3,16.6,58.6
				c-6.7,8.9-14.5,16.8-22,25c-14.6,16.1-25,34.2-26.5,56.4c-1.8,26.8,12.3,48.4,37.5,56.4c17,5.4,33.9,2.8,50.5-2.4
				c8.2-2.6,16.3-5.7,24.8-7.4c28.4-5.6,60.2,14.1,66.1,43.2c7.3,36.4-20.1,70.1-57.3,69.1c-13.3-0.4-24.6-5.9-35.9-11.9
				c-16-8.6-32.1-16.6-50.7-18.5c-34-3.4-60.6,15.6-68,49c-3,13.3-3.1,26.9-4.8,40.3c-2.4,19.2-18,35-35.7,36.3
				c-24,1.7-43.2-17-42.9-41.7c0.2-15.3,5.2-29.5,10.6-43.5c7.4-19.3,15.2-38.5,18.5-59.2c5.8-36.1-8-69-37.3-86.6
				c-16.5-9.9-34-11.7-52.1-3.9c-22,9.5-33.1,27.7-39.4,49.6c-4.5,15.6-4.1,31.7-4.6,47.6c-0.4,12.4-1,24.9-8.3,35.7
				c-5.9,8.7-13.5,9.6-20.8,2c-7.4-7.7-11.4-17.1-12.3-27.7c-1-11.9,0.1-23.8,1.2-35.7c0.3-3.1-0.1-4.6-3.8-3.9
				c-13.1,2.2-26,0.9-38.7-2.8c-3.3-1-3.6,0.2-3.8,2.8c-0.7,10.9-1.8,21.8-1.7,32.8c0.3,28.1,9.4,52.6,31,71.4
				c21.2,18.5,49.8,19.7,72.1,2.8c18-13.6,26.3-32.8,29.6-54.5c2.2-14.2,1.6-28.6,2.4-43c0.6-10,2.3-19.8,8-28.4
				c5.1-7.6,11.8-9.1,19.3-3.9c10.6,7.4,14.6,18,14,30.6c-0.6,15.1-5.6,29.1-11,43c-6.6,17.2-13.6,34.3-17.1,52.6
				c-5.3,27.6-1.8,53.2,15.3,76.3c20.3,27.4,57.4,40.9,90.3,30.8c36-11,57.2-35.8,62.8-73.3c1.7-11.4,2.1-23.1,3.9-34.5
				c2-12.8,7.3-16.2,20.1-14.6c10.5,1.3,19.5,6.5,28.5,11.3c10.8,5.7,21.6,11.6,33.5,15C791.6,451,849,423,866.6,371
				c19.2-56.7-13.9-118.7-71.8-133.2c-23.4-5.9-46-3.2-68.3,4.9c-7.4,2.7-14.9,5-22.8,5.7c-9.9,0.8-14.8-5.2-12-14.7
				c2.1-6.9,5.7-13.1,10.3-18.8c10.4-12.7,22.6-23.9,31.9-37.7c28-41.6,11.6-101.9-33-122.7c-40.4-18.8-96.2-1.4-114.5,46.4
				c-5.3,13.9-8.4,28.5-13.2,42.5c-6.8,19.7-19.4,27.4-37.9,28.9c-17.2,1.3-29.9-8.1-35.3-24.5c-5.3-16.1,0.2-33.2,13.4-42.7
				c11.7-8.3,24.8-14.6,35.8-23.9c26.7-22.6,42.4-49.9,47.5-81.9h-47.2c-3.9,14.4-11,27.3-21.4,38.6C519,48.3,506.8,54.9,495,61.8z"
				/>
			<path class="st2" d="M263.5,721.4c0.8-11.7,1.1-23.3-1.8-34.8c-3.4-13.3-9.6-25.3-15.9-37.3c-3.6-6.9-7.9-13.5-8.9-21.4
				c-0.8-6,3.6-10.1,9.1-8.6c5.2,1.4,10.4,3,15.3,5.1c9.1,3.9,17.9,8.4,27.5,11.2c20.1,6,39.3,4.6,58-5
				c13.2-6.8,23.9-16.1,31.6-28.9c13.6-22.4,13.9-45.7,4.9-69.4c-5.5-14.7-15.6-26.2-28.7-34.9c-6.5-4.4-13.7-7.9-21.1-10
				c-9.9-2.8-20.1-4.4-30.5-5.2c-10.4-0.7-20.8-1.3-31.1-1.7c-13.1-0.5-25.6-2.9-36.7-10c-9.2-6-12.6-13.9-5.8-24
				c1.1-1.6,2.1-3.3,3.2-5c7.8-11.5,17.7-21.5,24.2-34c6-11.7,10.1-24,8.8-37c-2.1-20.7-13.4-35.4-32.8-43.6
				c-15.5-6.5-31.5-6.5-47.8-4c-13,2-25.4,6.8-38.4,8.7c-7.8,1.1-15.3,0.9-20.4-5.6c-4.7-6.1-5.1-13.7-3.5-21
				c3.5-15.4,14.4-25.8,25.9-35.5c7.4-6.3,15.4-11.9,23.6-17.2c8.4-5.4,17.1-10.2,26-14.4c8.2-3.9,17.1-6.3,25.9-8.5
				c20-5.1,40.1-5.6,60,0.7c5.9,1.9,5.8,2,7.3-3.9c2.8-11.2,8.6-21.1,15.3-30.3c3.7-5.1,4-5.7-2.1-7.9c-12.2-4.4-24.8-7.4-37.8-8.5
				c-18.2-1.5-36.3-0.1-53.8,4.5c-16.3,4.3-32.2,10.1-47.2,18.3c-11.3,6.2-22.3,12.6-32.6,20.2c-18,13.2-34.6,27.6-46.1,47.2
				c-5.5,9.4-9.5,19.5-10.9,30.2c-2.2,17.2-0.2,34,9.4,49.1c5,7.9,11.2,14.6,19.2,19.7c13.4,8.6,28,10.7,43.5,9.5
				c11.7-0.9,23-4.3,34.3-7c9.7-2.3,19.3-4.5,29.4-2.2c5.9,1.3,7.8,4.7,6,10.3c-3.7,11.3-11.6,19.8-18.6,28.9
				c-12.1,15.4-21.2,31.8-20.1,52.2c0.5,10,3.3,19.3,8.8,27.6c8.5,12.8,20.3,21.8,34.2,28.3c18.8,8.8,38.6,10.9,59,11
				c11.5,0.1,23.2,0.3,34.3,3.1c11.4,2.9,21.3,8.8,25.3,21.5c2.8,8.8,2.9,17.2-1.9,24.9c-10,16.1-26.1,19.8-44.7,11.2
				c-17.1-7.9-34.3-15.3-54-14.3c-19.8,0.9-37.6,12.1-45.1,30.4c-7.3,17.6-5.2,35.2,2,52.2c5.2,12.1,12.5,23.3,17.6,35.4
				c5.3,12.7,3.6,25.8-1.6,38.4c-0.5,1.2-1,2.3-1.5,3.4h31.8c5.4-2.4,10.8-4.8,16.1-7.2C261.8,725.4,263.3,724.2,263.5,721.4z"/>
			<path class="st1" d="M392.7,225.2c0,0,0.1,0,0.1,0c-0.6-1.3-1.3-2.6-1.8-4c-0.7-2-1.8-3.7-4.2-3.1c-2.1,0.5-2.5,2.1-2.3,4.2
				c0.3,3.1,0.2,6.2,0.2,9.3c0,1.6,0.4,3.7-1.9,3.9c-2.3,0.2-2.3-1.9-2.4-3.5c-0.3-5.5-0.5-11.1-0.8-16.6c-0.2-3.6-1.8-6.1-5.6-5.9
				c-4,0.2-4.9,3.1-4.9,6.5c0.1,5.5,0.2,11.1,0.2,16.6c0,1.7,0.4,4.1-2.2,4.1c-2.6-0.1-2.2-2.3-2.2-4.1c-0.1-7.7-0.1-15.3-0.2-23
				c-0.1-3.2-2-4.9-4.9-5c-2.9-0.1-5,1.5-5.3,4.7c-0.2,2.1-0.3,4.2-0.4,6.3c-0.2,6.3-0.5,12.7-0.7,19c-0.1,1.6-0.2,3.2-2.1,3.3
				c-1.9,0.1-2.3-1.5-2.3-3.1c0-1.3,0-2.6,0.1-3.9c0.3-8.1,0.5-16.3,1-24.4c0.2-4.2-1.1-7.2-5.6-7.7c-3.6-0.4-6,2.3-6.4,7.1
				c-1.3,18.2-2.5,36.4-3.8,54.6c-0.2,3.4,0.8,5.8,3.9,7.7c6.5,4,12.7,8.5,19.2,12.7c3.6,2.3,4.5,5.4,3,9.3c-1.5,3.7-4.4,5-8.3,4.6
				c-3.4-0.4-6.8-0.7-10.2-1.4c-3.7-0.7-5.1-0.1-3.2,3.8c1.4,2.8,2.1,5.9,2.3,9c0.2,3.7,2.2,5.6,5.6,6.4c6.2,1.5,12.4,2.6,18.8,2.6
				c15-0.1,15.2-0.1,21-13.7c0.1-0.3,0.2-0.6,0.4-0.9c1.7-2.3,0.9-3.7-1.4-5c-3.9-2.2-5.4-5.7-4.1-9.9c0.8-2.6-0.1-3.2-2.3-4.2
				c-6.9-2.9-8.2-10.3-2.8-15.4c1.4-1.3,2.4-2.4,1.8-4.6c-1.3-5,0.6-8.6,5.2-10.9c1.5-0.7,2-1.7,2.1-3.5c0.4-6.2,2.3-8.4,8.6-9
				c2.9-0.3,3.2-1.3,2.3-3.6C394.9,231.4,393.8,228.3,392.7,225.2z"/>
			<path class="st2" d="M354.4,283.9c-6.1-4.2-12-8.6-18.4-12.3c-4.1-2.4-6.1-5.6-5.9-9.8c0.4-9.9,1.4-19.8,2.2-29.7
				c0.6-8.7,1.2-17.4,1.7-26.1c0.1-2.2-0.5-4.9-2.7-5.2c-3.9-0.6-7.3-2.5-11.1-3.3c-2.6-0.5-4.4,0.2-6.1,2.1
				c-7.6,8.8-12.8,18.8-16.3,29.8c-0.7,2.2-0.7,4.2,1.8,6c2.8,2,4.8,4.9,5.5,8.4c1.2,6.5,5.4,11.9,5.9,17.8
				c4.4,8.6,10.6,14.8,16.1,21.6c1.8,2.2,4.3,4.3,7.2,4.5c6,0.4,11.6,3,17.7,2.3c1.5-0.2,3.3,1,4.2-1
				C357.1,286.9,356.1,285.1,354.4,283.9z"/>
			<path class="st2" d="M403.5,269.7c-5.9-0.6-11.8-1.1-17.8-1.5c-1.7-0.1-3.4-1.5-4.5-0.6c-3,1.6-3.9,3.7-3.8,6
				c0,2.9,2.4,3.8,4.7,4.1c6.9,0.8,13.8,1.2,20.8,2c3.1,0.4,5.6,0.6,6-3.3C409.3,272.3,407.4,270.1,403.5,269.7z"/>
			<path class="st2" d="M404.6,256.1c-6-1.5-12.1-2.4-18.2-1.9c-4.4,0.4-5.5,2.6-3.5,7.1c0.4,1.6,1.6,2.8,4,3
				c5.3,0.4,10.6,0.9,15.9,1.4c2.8,0.3,5-0.7,5.4-3.6C408.7,259.4,407.6,256.8,404.6,256.1z"/>
			<path class="st2" d="M400.7,283.6c-3.2-0.2-6.4-0.3-9.6-0.8c-3-0.5-4.8,0.8-5.5,3.4c-0.7,2.6,0.3,5.5,2.7,6.1
				c4.4,1.1,9.1,1.8,12.8,1.1c2.7-1.4,5.2-1.9,4.6-4.8C405.2,286,404,283.7,400.7,283.6z"/>
			<path class="st2" d="M401.1,242.6c-2.4-0.2-4.8-0.3-7.3-0.4c-2.4-0.1-4.3,1.3-4.5,3.5c-0.2,2.1,0.9,4.4,3.3,4.8
				c3,0.5,6,0.7,9.7,0.1c1.2-1.2,3.5-2,3.3-4.8C405.5,243,403.2,242.8,401.1,242.6z"/>
		</g>
	</g>
</g>
</svg>
