<svg width="415" height="1040" viewBox="0 0 415 1040" fill="none" xmlns="http://www.w3.org/2000/svg">
<g clip-path="url(#clip0)">
<path d="M193.892 739.109C166.83 687.306 112.635 576.323 100.44 564.748C88.4543 553.384 67.4893 530.913 61.1691 521.211C53.262 509.071 57.1181 497.803 69.4382 492.686C81.9254 487.488 94.6631 487.714 107.164 492.734C121.238 498.384 134.171 506.892 147.09 515.318C150.417 517.481 152.324 517.869 153.48 512.671C157.6 494.106 165.646 477.818 176.254 463.305C179.025 459.512 177.813 458.446 175.001 456.719C162.974 449.342 151.155 441.512 138.64 435.249C106.496 419.154 74.1157 416.765 41.7771 434.038C9.95363 451.037 -5.86067 488.037 1.9908 527.393C8.31095 559.098 91.0158 672.084 106.663 698.042C161.15 788.426 250.913 1034.8 260.282 1040.02L308.852 1029.59C302.824 1019.24 240.124 827.573 193.892 739.109Z" fill="#F9C1CC"/>
<path d="M337.989 359.812C333.59 389.128 324.068 415.942 306.764 438.445C301.641 445.112 301.585 444.935 307.474 450.31C318.806 460.642 327.047 474.025 334.189 488.263C338.17 496.173 338.588 496.851 344.17 490.168C355.432 476.672 365.163 461.82 372.986 445.338C383.928 422.27 391.474 397.587 395.163 371.855C396.262 364.203 414.36 7.70024 415 0H347.539C347.065 3.68062 338.546 356.164 337.989 359.812Z" fill="#D0E5D3"/>
<path d="M306.959 523.971C286.913 511.557 266.825 499.272 246.792 486.842C242.992 484.485 239.79 484.502 236.059 487.44C228.166 493.639 219.911 499.224 211.906 505.229C207.424 508.587 203.428 508.022 199.864 503.679C196.482 499.563 196.37 494.881 198.862 490.119C201.062 485.89 203.164 481.563 205.642 477.544C208.342 473.153 208.356 470.893 202.969 471.119C199.085 471.28 195.229 470.489 191.595 468.891C187.308 466.986 184.12 468.536 181.461 472.54C176.63 479.82 172.231 487.343 169.002 495.818C161.442 515.641 161.401 515.9 173.957 531.51C174.236 531.849 174.584 532.156 174.779 532.559C176.505 536.143 178.537 535.982 181.168 533.689C185.651 529.767 190.356 529.896 194.547 534.125C197.066 536.66 198.277 535.869 200.477 533.496C207.243 526.167 216.291 528.782 219.41 538.807C220.231 541.454 220.899 543.295 223.683 543.811C229.99 544.973 233.164 549.687 233.414 557.016C233.498 559.405 234.361 560.648 236.282 561.794C243.145 565.911 244.607 569.769 242.129 578.39C240.973 582.409 241.948 583.378 245.108 583.539C249.173 583.749 253.224 584.185 257.289 584.508C257.289 584.572 257.289 584.621 257.289 584.685C259.112 584.685 260.964 584.54 262.774 584.718C265.46 584.976 267.869 584.508 268.426 580.972C268.913 577.921 267.298 576.404 264.834 575.419C261.201 573.966 257.72 572.029 254.184 570.286C252.333 569.382 249.785 568.623 250.732 565.572C251.692 562.521 254.059 563.699 255.966 564.539C262.398 567.428 268.801 570.383 275.219 573.305C279.395 575.193 283.029 574.564 284.783 569.349C286.579 563.974 283.753 561.02 279.827 559.05C273.493 555.886 267.131 552.787 260.839 549.51C258.945 548.525 255.952 547.669 257.372 544.182C258.737 540.825 261.117 542.697 263.149 543.73C271.878 548.137 280.593 552.577 289.349 556.919C292.982 558.711 295.975 557.145 297.576 553.368C299.163 549.606 298.398 545.926 294.959 543.666C292.662 542.165 290.295 540.841 287.943 539.485C280.857 535.433 273.771 531.381 266.658 527.361C264.917 526.377 263.122 525.23 263.957 522.664C264.82 520.016 266.825 520.565 268.607 521.469C270.096 522.212 271.558 523.019 273.019 523.842C282.11 529.024 291.242 534.125 300.263 539.452C304.94 542.213 308.964 542.165 311.803 536.547C314.087 531.962 312.235 527.248 306.959 523.971Z" fill="#F9C1CC"/>
<path d="M300.667 456.881C298.537 454.685 296.268 453.458 292.996 455.702C289.363 458.188 284.95 459.173 280.648 457.995C272.672 455.831 264.402 458.124 257.47 455.283C245.484 456.041 235.224 460.529 224.769 463.871C221.414 464.952 217.656 467.035 215.943 470.732C212.435 478.319 206.7 484.243 204.319 492.67C203.721 494.769 201.535 496.48 203.317 498.82C205.21 501.306 207.744 501.097 209.999 499.498C217.85 493.961 225.911 488.747 233.331 482.5C238.064 478.513 242.741 477.721 247.433 480.45C258.458 486.842 269.163 493.978 280.036 500.725C289.613 506.682 299.205 512.574 308.852 518.37C311.302 519.839 314.643 520.565 316.161 517.869C318.848 513.107 322.732 509.717 325.53 505.132C327.423 502.033 327.52 499.143 326.212 495.899C320.114 480.756 311.4 467.906 300.667 456.881Z" fill="#D0E5D3"/>
<path d="M210.054 535.82C206.783 534.19 204.458 536.773 203.038 539.565C198.625 548.186 194.7 557.129 190.273 565.733C188.31 569.543 186.723 572.739 190.997 575.661C195.312 578.599 198.765 577.469 201.187 572.497C204.834 565.039 208.398 557.533 211.906 549.978C212.922 547.798 215.344 546.394 214.899 544.408C214.621 539.581 212.727 537.16 210.054 535.82Z" fill="#D0E5D3"/>
<path d="M221.094 550.381C219.103 550.058 217.099 550.817 215.72 553.836C212.63 560.632 209.303 567.299 206.045 573.999C204.319 577.534 204.291 580.972 207.368 583.249C210.319 585.444 213.73 585.557 216.082 582.038C220.774 575.032 224.908 567.557 227.428 559.115C229.21 553.077 227.247 550.284 221.094 550.381Z" fill="#D0E5D3"/>
<path d="M191.526 539.355C188.909 536.821 185.108 536.514 183.215 539.371C179.749 544.569 176.589 550.268 175.489 555.579C175.698 560.002 174.988 563.57 178.607 564.409C181.906 565.168 185.025 565.007 186.862 560.777C188.658 556.661 190.44 552.496 192.626 548.654C194.728 544.925 194.115 541.857 191.526 539.355Z" fill="#D0E5D3"/>
<path d="M235.516 568.009C233.233 566.589 230.087 566.589 228.403 569.543C226.342 573.175 224.477 577.065 223.419 582.231C224.143 584.443 223.864 588.059 227.192 589.431C230.574 590.835 231.925 588.01 233.205 585.331C234.653 582.263 235.99 579.116 237.284 575.968C238.579 572.788 238.036 569.575 235.516 568.009Z" fill="#D0E5D3"/>
</g>
<defs>
<clipPath id="clip0">
<rect width="415" height="1040" fill="white"/>
</clipPath>
</defs>
</svg>
