<?xml version="1.0" encoding="utf-8"?>
<!-- Generator: Adobe Illustrator 23.0.5, SVG Export Plug-In . SVG Version: 6.00 Build 0)  -->
<svg version="1.1" id="Слой_1" xmlns="http://www.w3.org/2000/svg" xmlns:xlink="http://www.w3.org/1999/xlink" x="0px" y="0px"
	 viewBox="0 0 324 313" style="enable-background:new 0 0 324 313;" xml:space="preserve">
<style type="text/css">
	.st0{fill:#74273A;}
	.st1{fill:#7A6064;}
</style>
<g>
	<path class="st0" d="M156.8,78.3c14.3,2,28.5-0.5,42.7-2.1c11.1-1.2,22.1-2.3,32.6,2.8c8.5,4.1,10.2,10.7,4.4,18.1
		c-5.9,7.5-13.7,12.3-22.9,14.5c-10.4,2.5-21.1,3-31.7,3.5c-2.7,0.1-4,0.7-3,3.8c3.7,11.3,4.2,22.9,2.6,34.6c-0.4,3.1,0.7,3.1,2.9,3
		c9.7-0.8,19.5-1.2,29.2-2.8c24.8-3.9,45.3-15.1,59.2-36.6c13.7-21.1,11-46.6-6.8-64.1c-14.3-14.2-32.4-19-52-19.2
		c-7.5-0.1-14.9,0.7-22.3,1.6l-58,36.7C140.9,75.3,148.6,77.2,156.8,78.3z"/>
	<path class="st1" d="M117.8,269.9c-7.1-17-10.2-34.7-7.1-53.1c0.9-5.5,1-5.4-4.4-5.9c-10.3-1-19.7-4.9-28.8-9.6
		c-5-2.6-5.5-2.8-6.7,2.8c-2.4,11.4-3.3,22.9-2.6,34.5c1,16.3,4.6,32.1,10.9,47c1.9,4.4,3.9,8.8,6.1,13l35.3-22.4
		C119.6,274.1,118.7,272,117.8,269.9z"/>
	<path class="st0" d="M82.2,172.1c16.3-1.2,32.5-2.5,48.8-3.7c3.1-0.2,5-1.5,6.3-4.4c2.7-6.3,5.9-12.4,8.8-18.6
		c1.6-3.5,4.2-4.7,7.8-3.8c3.4,0.9,5,3.3,5.1,6.7c0.1,3.1,0.2,6.1,0.1,9.2c-0.2,3.3,0.6,4.5,3.8,2.3c2.3-1.6,4.9-2.6,7.6-3.2
		c3.2-0.7,4.7-2.7,4.9-5.8c0.5-5.7,0.7-11.3-0.2-17c-2-13.3-2-13.4-14.8-16.8c-0.3-0.1-0.6-0.1-0.8-0.2c-2.2-1.2-3.4-0.3-4.3,1.9
		c-1.4,3.8-4.3,5.5-8.3,4.9c-2.4-0.4-2.8,0.5-3.4,2.6c-1.7,6.4-8,8.5-13.2,4.5c-1.4-1.1-2.4-1.8-4.3-1c-4.2,1.8-7.7,0.6-10.3-3.2
		c-0.8-1.2-1.8-1.5-3.3-1.4c-5.5,0.5-7.7-1-9.1-6.4c-0.6-2.5-1.5-2.7-3.5-1.5c-2.5,1.5-5.1,2.8-7.7,4.2c0,0,0-0.1-0.1-0.1
		c-1.1,0.7-2.2,1.5-3.3,2.1c-1.7,0.9-3,2.1-2.2,4.1c0.7,1.8,2.2,2,4,1.5c2.7-0.6,5.4-1,8.2-1.4c1.4-0.2,3.2-0.8,3.7,1.1
		c0.4,2-1.4,2.3-2.8,2.6c-4.9,1-9.7,1.9-14.6,2.8c-3.2,0.6-5.2,2.3-4.5,5.7c0.7,3.5,3.4,4,6.4,3.5c4.9-0.8,9.8-1.6,14.7-2.3
		c1.5-0.2,3.6-0.9,3.9,1.5c0.3,2.3-1.8,2.2-3.4,2.5c-6.8,1.1-13.5,2.1-20.3,3.2c-2.8,0.5-4.1,2.4-3.8,5c0.3,2.6,2,4.2,4.8,4.1
		c1.9-0.1,3.8-0.3,5.6-0.5c5.6-0.6,11.3-1.2,16.9-1.8c1.4-0.2,2.9-0.2,3.2,1.4c0.4,1.7-1,2.2-2.4,2.4c-1.2,0.2-2.3,0.3-3.5,0.5
		c-7.2,0.8-14.5,1.6-21.7,2.3c-3.8,0.4-6.2,1.9-6,6C75.2,170.6,77.9,172.4,82.2,172.1z"/>
	<path class="st1" d="M108.2,204.7c2,0.3,3.8,0.1,5-2.3c1.4-2.7,3.7-4.9,6.7-5.9c5.6-1.9,9.8-6.3,15-7.5c7-5,11.8-11.3,17-17.1
		c1.7-1.9,3.3-4.4,3.1-7c-0.4-5.3,1.1-10.6-0.2-15.9c-0.3-1.3,0.4-3.1-1.4-3.6c-2-0.6-3.4,0.5-4.3,2.2c-2.9,5.9-6.1,11.7-8.5,17.9
		c-1.5,3.9-4.1,6.1-7.9,6.5c-8.8,0.9-17.7,1.3-26.5,1.9c-7.8,0.6-15.6,1.2-23.3,1.9c-2,0.2-4.2,1.1-4.3,3.1
		c-0.1,3.5-1.3,6.8-1.5,10.3c-0.1,2.4,0.8,3.9,2.6,5.1C88.5,199.7,98.1,203.1,108.2,204.7z"/>
	<path class="st1" d="M137,128.6c2.5-0.4,3.1-2.7,3-4.7c-0.2-6.2-0.8-12.4-0.9-18.6c-0.1-2.7-0.2-5-3.7-4.9c-3.6,0.1-5.3,2-5.1,5.6
		c0.3,5.3,0.6,10.6,1,15.9c0.1,1.5-0.9,3.2,0,4.1C133,128.4,135,128.9,137,128.6z"/>
	<path class="st1" d="M125.5,125.2c1.3-0.6,2.3-1.8,2.1-3.9c-0.4-4.7-0.6-9.5-0.8-14.3c-0.1-2.5-1.2-4.3-3.9-4.3
		c-2.5,0-4.6,1.2-4.9,4c-0.5,5.5-0.6,11,0.7,16.4C119.7,126.9,121.8,127.6,125.5,125.2z"/>
	<path class="st1" d="M147.1,119.6c2.4,0.3,4.8-1,5-3.2c0.4-4.1,0.4-8.3-0.7-11.5c-1.6-2.2-2.3-4.4-4.8-3.4
		c-2.3,0.9-4.1,2.2-3.8,5.1c0.3,2.8,0.6,5.7,0.5,8.6C143.3,117.9,144.7,119.3,147.1,119.6z"/>
	<path class="st1" d="M110.9,121.5c1.9-0.1,3.8-1.3,3.8-3.5c0-2.7-0.1-5.4-1.2-8.6c-1.2-0.9-2.2-2.9-4.7-2.3
		c-2.5,0.6-2.4,2.6-2.3,4.5c0.1,2.2,0.4,4.3,0.6,6.5C107.5,120.2,108.9,121.7,110.9,121.5z"/>
</g>
</svg>
